<mxfile host="app.diagrams.net" modified="2024-02-01T05:35:04.219Z" agent="Mozilla/5.0 (X11; Linux x86_64; rv:122.0) Gecko/20100101 Firefox/122.0" etag="dLC0RhTYTGpZB0Nk2XYx" version="22.1.21" type="device">
  <diagram name="Page-1" id="t2hG8WztHcQz6JhaCs58">
    <mxGraphModel dx="1114" dy="596" grid="1" gridSize="10" guides="1" tooltips="1" connect="1" arrows="1" fold="1" page="1" pageScale="1" pageWidth="850" pageHeight="1100" math="0" shadow="0">
      <root>
        <mxCell id="0" />
        <mxCell id="1" parent="0" />
        <mxCell id="XnPvESz1ggUDk7gX7ELK-7" style="edgeStyle=orthogonalEdgeStyle;rounded=0;orthogonalLoop=1;jettySize=auto;html=1;exitX=0;exitY=0.5;exitDx=0;exitDy=0;entryX=1;entryY=0.5;entryDx=0;entryDy=0;labelPosition=center;verticalLabelPosition=top;align=center;verticalAlign=bottom;fontSize=14;" edge="1" parent="1" source="XnPvESz1ggUDk7gX7ELK-1" target="XnPvESz1ggUDk7gX7ELK-2">
          <mxGeometry relative="1" as="geometry" />
        </mxCell>
        <mxCell id="XnPvESz1ggUDk7gX7ELK-15" value="resume" style="edgeLabel;html=1;align=center;verticalAlign=bottom;resizable=0;points=[];fontSize=14;labelPosition=center;verticalLabelPosition=top;" vertex="1" connectable="0" parent="XnPvESz1ggUDk7gX7ELK-7">
          <mxGeometry x="0.3385" y="-2" relative="1" as="geometry">
            <mxPoint x="7" y="2" as="offset" />
          </mxGeometry>
        </mxCell>
        <mxCell id="XnPvESz1ggUDk7gX7ELK-9" style="edgeStyle=orthogonalEdgeStyle;rounded=0;orthogonalLoop=1;jettySize=auto;html=1;exitX=1;exitY=0.5;exitDx=0;exitDy=0;entryX=0;entryY=0.5;entryDx=0;entryDy=0;labelPosition=center;verticalLabelPosition=top;align=center;verticalAlign=bottom;fontSize=14;" edge="1" parent="1" source="XnPvESz1ggUDk7gX7ELK-1" target="XnPvESz1ggUDk7gX7ELK-4">
          <mxGeometry relative="1" as="geometry" />
        </mxCell>
        <mxCell id="XnPvESz1ggUDk7gX7ELK-14" value="suspend" style="edgeLabel;html=1;align=center;verticalAlign=bottom;resizable=0;points=[];fontSize=14;labelPosition=center;verticalLabelPosition=top;" vertex="1" connectable="0" parent="XnPvESz1ggUDk7gX7ELK-9">
          <mxGeometry x="-0.0714" y="-1" relative="1" as="geometry">
            <mxPoint as="offset" />
          </mxGeometry>
        </mxCell>
        <mxCell id="XnPvESz1ggUDk7gX7ELK-1" value="&lt;font style=&quot;font-size: 18px;&quot;&gt;EMPTY&lt;/font&gt;" style="rounded=0;whiteSpace=wrap;html=1;fontStyle=1;fontSize=18;fillColor=#dae8fc;strokeColor=#6c8ebf;" vertex="1" parent="1">
          <mxGeometry x="330" y="70" width="120" height="60" as="geometry" />
        </mxCell>
        <mxCell id="XnPvESz1ggUDk7gX7ELK-8" style="edgeStyle=orthogonalEdgeStyle;rounded=0;orthogonalLoop=1;jettySize=auto;html=1;exitX=0.5;exitY=1;exitDx=0;exitDy=0;entryX=0.5;entryY=0;entryDx=0;entryDy=0;labelPosition=center;verticalLabelPosition=top;align=center;verticalAlign=bottom;fontSize=14;" edge="1" parent="1" source="XnPvESz1ggUDk7gX7ELK-2" target="XnPvESz1ggUDk7gX7ELK-3">
          <mxGeometry relative="1" as="geometry" />
        </mxCell>
        <mxCell id="XnPvESz1ggUDk7gX7ELK-16" value="suspend" style="edgeLabel;html=1;align=left;verticalAlign=middle;resizable=0;points=[];fontSize=14;labelPosition=right;verticalLabelPosition=middle;" vertex="1" connectable="0" parent="XnPvESz1ggUDk7gX7ELK-8">
          <mxGeometry x="0.0286" relative="1" as="geometry">
            <mxPoint as="offset" />
          </mxGeometry>
        </mxCell>
        <mxCell id="XnPvESz1ggUDk7gX7ELK-2" value="RESUMED" style="rounded=0;whiteSpace=wrap;html=1;fontStyle=1;fontSize=18;fillColor=#d5e8d4;strokeColor=#82b366;" vertex="1" parent="1">
          <mxGeometry x="140" y="70" width="120" height="60" as="geometry" />
        </mxCell>
        <mxCell id="XnPvESz1ggUDk7gX7ELK-3" value="TAKEN" style="rounded=0;whiteSpace=wrap;html=1;fontStyle=1;fontSize=18;fillColor=#d5e8d4;strokeColor=#82b366;" vertex="1" parent="1">
          <mxGeometry x="140" y="180" width="120" height="60" as="geometry" />
        </mxCell>
        <mxCell id="XnPvESz1ggUDk7gX7ELK-10" style="edgeStyle=orthogonalEdgeStyle;rounded=0;orthogonalLoop=1;jettySize=auto;html=1;exitX=0.5;exitY=1;exitDx=0;exitDy=0;entryX=0.5;entryY=0;entryDx=0;entryDy=0;labelPosition=center;verticalLabelPosition=top;align=center;verticalAlign=bottom;fontSize=14;" edge="1" parent="1" source="XnPvESz1ggUDk7gX7ELK-4" target="XnPvESz1ggUDk7gX7ELK-6">
          <mxGeometry relative="1" as="geometry" />
        </mxCell>
        <mxCell id="XnPvESz1ggUDk7gX7ELK-13" value="cancel" style="edgeLabel;html=1;align=center;verticalAlign=bottom;resizable=0;points=[];fontSize=14;labelPosition=center;verticalLabelPosition=top;" vertex="1" connectable="0" parent="XnPvESz1ggUDk7gX7ELK-10">
          <mxGeometry x="-0.04" y="1" relative="1" as="geometry">
            <mxPoint as="offset" />
          </mxGeometry>
        </mxCell>
        <mxCell id="XnPvESz1ggUDk7gX7ELK-11" style="edgeStyle=orthogonalEdgeStyle;rounded=0;orthogonalLoop=1;jettySize=auto;html=1;exitX=0.5;exitY=1;exitDx=0;exitDy=0;entryX=0.5;entryY=0;entryDx=0;entryDy=0;labelPosition=center;verticalLabelPosition=top;align=center;verticalAlign=bottom;fontSize=14;" edge="1" parent="1" source="XnPvESz1ggUDk7gX7ELK-4" target="XnPvESz1ggUDk7gX7ELK-5">
          <mxGeometry relative="1" as="geometry" />
        </mxCell>
        <mxCell id="XnPvESz1ggUDk7gX7ELK-12" value="resume" style="edgeLabel;html=1;align=center;verticalAlign=bottom;resizable=0;points=[];labelPosition=center;verticalLabelPosition=top;fontSize=14;" vertex="1" connectable="0" parent="XnPvESz1ggUDk7gX7ELK-11">
          <mxGeometry x="0.0508" y="1" relative="1" as="geometry">
            <mxPoint as="offset" />
          </mxGeometry>
        </mxCell>
        <mxCell id="XnPvESz1ggUDk7gX7ELK-4" value="CALLBACK(waiting)" style="rounded=0;whiteSpace=wrap;html=1;fontStyle=1;fontSize=18;fillColor=#fff2cc;strokeColor=#d6b656;" vertex="1" parent="1">
          <mxGeometry x="530" y="70" width="190" height="60" as="geometry" />
        </mxCell>
        <mxCell id="XnPvESz1ggUDk7gX7ELK-5" value="CALLBACK(resumed)" style="rounded=0;whiteSpace=wrap;html=1;fontStyle=1;fontSize=18;fillColor=#d5e8d4;strokeColor=#82b366;" vertex="1" parent="1">
          <mxGeometry x="350" y="180" width="200" height="60" as="geometry" />
        </mxCell>
        <mxCell id="XnPvESz1ggUDk7gX7ELK-6" value="CALLBACK(cancelled)" style="rounded=0;whiteSpace=wrap;html=1;fontStyle=1;fontSize=18;fillColor=#f8cecc;strokeColor=#b85450;" vertex="1" parent="1">
          <mxGeometry x="600" y="180" width="200" height="60" as="geometry" />
        </mxCell>
      </root>
    </mxGraphModel>
  </diagram>
</mxfile>
